<svg xmlns="http://www.w3.org/2000/svg" width="97.722" height="38.944" viewBox="0 0 97.722 38.944">
  <g id="logo-tqi" transform="translate(0 -9.207)">
    <path id="Caminho_13207" data-name="Caminho 13207" d="M-1003.72.173c-2.032-4.912,7.233-13.756,20.694-19.748S-957-26.441-954.96-21.519c1.8,4.336-5.217,11.751-16.157,17.543,6.075-4.317,9.351-9.967,7.552-13.768-2.176-4.588-10.931-4.757-19.546-.373S-996.962-6.454-994.783-1.859c1.36,2.867,5.277,4.01,10.135,3.391a41.857,41.857,0,0,1-11.209,1.83C-999.944,3.362-1002.83,2.317-1003.72.173Zm-17.342,2.777V-19.288H-1035.3v-4.883h38l.005,4.818-14.341.007v22.3Zm74,0V-24.172h9.489V2.948Z" transform="translate(1035.298 33.913)" fill="#fff"/>
    <path id="Caminho_2" data-name="Caminho 2" d="M366.676,400.108c10.994.574,6.532,6.127.573,15.18,8.83-10.282,15.76-14.881,14.843-16.583-.742-1.4-6.622-.1-15.416,1.4" transform="translate(-318.464 -367.137)" fill="#ed1c29"/>
  </g>
</svg>
